<svg xmlns="http://www.w3.org/2000/svg" width="600" height="400" viewBox="0 0 600 400">
  <rect width="600" height="400" fill="#f0f4f8"/>
  <g transform="translate(200, 100)" fill="#1e3a5f" opacity="0.2">
    <!-- Team/workers icons -->
    <g transform="translate(0,0)">
      <circle cx="25" cy="15" r="12"/>
      <rect x="10" y="30" width="30" height="40" rx="8"/>
    </g>
    <g transform="translate(60,0)">
      <circle cx="25" cy="15" r="12"/>
      <rect x="10" y="30" width="30" height="40" rx="8"/>
    </g>
    <g transform="translate(120,0)">
      <circle cx="25" cy="15" r="12"/>
      <rect x="10" y="30" width="30" height="40" rx="8"/>
    </g>
    <g transform="translate(30,60)">
      <circle cx="25" cy="15" r="12"/>
      <rect x="10" y="30" width="30" height="40" rx="8"/>
    </g>
    <g transform="translate(90,60)">
      <circle cx="25" cy="15" r="12"/>
      <rect x="10" y="30" width="30" height="40" rx="8"/>
    </g>
    <g transform="translate(150,60)">
      <circle cx="25" cy="15" r="12"/>
      <rect x="10" y="30" width="30" height="40" rx="8"/>
    </g>
  </g>
  <text x="300" y="310" text-anchor="middle" font-family="system-ui, sans-serif" font-size="18" fill="#1e3a5f" opacity="0.5">Equipo de trabajo</text>
  <text x="300" y="335" text-anchor="middle" font-family="system-ui, sans-serif" font-size="13" fill="#64748b" opacity="0.5">6 costureras asociadas</text>
</svg>