<svg xmlns="http://www.w3.org/2000/svg" width="600" height="400" viewBox="0 0 600 400">
  <rect width="600" height="400" fill="#f8f6f0"/>
  <rect x="0" y="0" width="600" height="400" fill="#1e3a5f" opacity="0.05"/>
  <!-- Thread spools -->
  <g transform="translate(200, 100)" fill="#1e3a5f" opacity="0.2">
    <rect x="0" y="20" width="30" height="60" rx="4"/>
    <rect x="-4" y="16" width="38" height="8" rx="2"/>
    <rect x="-4" y="76" width="38" height="8" rx="2"/>
    <rect x="60" y="20" width="30" height="60" rx="4"/>
    <rect x="56" y="16" width="38" height="8" rx="2"/>
    <rect x="56" y="76" width="38" height="8" rx="2"/>
    <rect x="120" y="20" width="30" height="60" rx="4"/>
    <rect x="116" y="16" width="38" height="8" rx="2"/>
    <rect x="116" y="76" width="38" height="8" rx="2"/>
    <rect x="180" y="20" width="30" height="60" rx="4"/>
    <rect x="176" y="16" width="38" height="8" rx="2"/>
    <rect x="176" y="76" width="38" height="8" rx="2"/>
  </g>
  <text x="300" y="260" text-anchor="middle" font-family="system-ui, sans-serif" font-size="18" fill="#1e3a5f" opacity="0.5">Materiales e insumos</text>
</svg>